<?xml version="1.0" encoding="utf-8"?>
<!-- Generator: Adobe Illustrator 25.3.1, SVG Export Plug-In . SVG Version: 6.00 Build 0)  -->
<svg version="1.1" id="Layer_1" xmlns="http://www.w3.org/2000/svg" xmlns:xlink="http://www.w3.org/1999/xlink" x="0px" y="0px"
	 viewBox="0 0 81 98" style="enable-background:new 0 0 81 98;" xml:space="preserve">
<style type="text/css">
	.st0{fill:url(#SVGID_1_);}
	.st1{fill:#FFFFFF;}
</style>
<linearGradient id="SVGID_1_" gradientUnits="userSpaceOnUse" x1="0.1976" y1="53.7719" x2="87.6443" y2="51.4796" gradientTransform="matrix(1 0 0 -1 0 100)">
	<stop  offset="0" style="stop-color:#0041E8"/>
	<stop  offset="1" style="stop-color:#3CBDB5"/>
</linearGradient>
<path class="st0" d="M62.5,31.5c-0.6,0-1.2,0-1.8,0.1c-3,0.3-6.2-0.7-8.4-2.9C48.8,25.2,44,23,38.8,23c-7.4,0-13.8,4.4-17.2,10.8
	c-1.1,2.1-3.4,3.4-5.7,3.4C7.1,37.1,0,44.7,0,54s7.1,16.9,15.9,16.9c5.9,0,40.3,0,46.5,0c10.2,0,18.5-8.8,18.5-19.7
	C81,40.3,72.7,31.5,62.5,31.5z"/>
<path class="st1" d="M50.1,47.5c0,6.4-3.5,11.9-8.5,14.6c-1,0.5-1.5,1.8-1.1,2.9c0.5,1.3,1.9,1.9,3.1,1.3
	c6.5-3.5,10.9-10.6,10.9-18.8c0-8.2-4.5-15.2-10.9-18.8c-1.2-0.6-2.6,0-3.1,1.3c-0.4,1.1,0.1,2.3,1.1,2.9
	C46.7,35.7,50.1,41.1,50.1,47.5z"/>
<path class="st1" d="M45.6,47.5c0-4-1.9-7.5-4.9-9.6c-1.2-0.9-2.9-0.3-3.4,1.1c-0.4,1,0.1,2.1,0.9,2.8c1.7,1.3,2.8,3.4,2.8,5.7
	c0,2.4-1.1,4.5-2.8,5.7C37.5,53.9,37,55,37.4,56c0.5,1.4,2.2,2,3.4,1.1C43.7,55,45.6,51.5,45.6,47.5z"/>
<path class="st1" d="M37.3,47.5c0-1.3-0.8-2.4-1.9-2.9l-0.7,2c-0.2,0.6-0.2,1.2,0,1.7l0.7,2C36.5,49.9,37.3,48.8,37.3,47.5z"/>
</svg>
